HIERARCHY
ROOT Hips
{
	OFFSET 0.000000 0.000000 0.000000
	CHANNELS 6 Xposition Yposition Zposition Xrotation Yrotation Zrotation
	JOINT LeftUpLeg_virtual
	{
		OFFSET 0.000000 0.000000 0.000000
		CHANNELS 3 Xrotation Yrotation Zrotation
		JOINT LeftUpLeg
		{
			OFFSET 10.205400 -3.823500 0.155100
			CHANNELS 3 Xrotation Yrotation Zrotation
			JOINT LeftLeg
			{
				OFFSET 0.708757 -12.982077 0.567790
				CHANNELS 3 Xrotation Yrotation Zrotation
				JOINT LeftFoot
				{
					OFFSET -0.708756 -10.717838 -2.184338
					CHANNELS 3 Xrotation Yrotation Zrotation
					JOINT LeftToeBase
					{
						OFFSET 0.108149 -7.191104 7.560241
						CHANNELS 3 Xrotation Yrotation Zrotation
						JOINT LeftToe_End
						{
							OFFSET 0.070230 0.081724 4.490308
							CHANNELS 3 Xrotation Yrotation Zrotation
							End Site
							{
								OFFSET 0 0 0
							}
						}
					}
				}
			}
		}
	}
	JOINT RightUpLeg_virtual
	{
		OFFSET 0.000000 0.000000 0.000000
		CHANNELS 3 Xrotation Yrotation Zrotation
		JOINT RightUpLeg
		{
			OFFSET -10.205400 -3.823500 0.005500
			CHANNELS 3 Xrotation Yrotation Zrotation
			JOINT RightLeg
			{
				OFFSET -0.708756 -12.982134 0.610632
				CHANNELS 3 Xrotation Yrotation Zrotation
				JOINT RightFoot
				{
					OFFSET 0.708754 -10.717769 -1.945823
					CHANNELS 3 Xrotation Yrotation Zrotation
					JOINT RightToeBase
					{
						OFFSET -0.108140 -7.191069 7.372968
						CHANNELS 3 Xrotation Yrotation Zrotation
						JOINT RightToe_End
						{
							OFFSET -0.070227 0.081735 4.479403
							CHANNELS 3 Xrotation Yrotation Zrotation
							End Site
							{
								OFFSET 0 0 0
							}
						}
					}
				}
			}
		}
	}
	JOINT Spine_virtual
	{
		OFFSET 0.000000 0.000000 0.000000
		CHANNELS 3 Xrotation Yrotation Zrotation
		JOINT Spine
		{
			OFFSET 0.000000 6.876099 0.125700
			CHANNELS 3 Xrotation Yrotation Zrotation
			JOINT Spine1
			{
				OFFSET 0.000000 5.730043 0.104720
				CHANNELS 3 Xrotation Yrotation Zrotation
				JOINT Spine1_split
				{
					OFFSET 0.000000 5.730043 0.104720
					CHANNELS 3 Xrotation Yrotation Zrotation
					JOINT Spine2
					{
						OFFSET 0.000000 5.730043 0.104720
						CHANNELS 3 Xrotation Yrotation Zrotation
						JOINT Neck_virtual
						{
							OFFSET 0.000000 0.000000 0.000000
							CHANNELS 3 Xrotation Yrotation Zrotation
							JOINT Neck
							{
								OFFSET 0.000000 10.314075 0.188496
								CHANNELS 3 Xrotation Yrotation Zrotation
								JOINT Head
								{
									OFFSET 0.000000 7.643700 -2.377400
									CHANNELS 3 Xrotation Yrotation Zrotation
									JOINT HeadTop_End
									{
										OFFSET 0.000000 43.788605 -13.619600
										CHANNELS 3 Xrotation Yrotation Zrotation
										End Site
										{
											OFFSET 0 0 0
										}
									}
								}
							}
						}
						JOINT LeftShoulder_virtual
						{
							OFFSET 0.000000 0.000000 0.000000
							CHANNELS 3 Xrotation Yrotation Zrotation
							JOINT LeftShoulder
							{
								OFFSET 2.196100 4.412489 0.087492
								CHANNELS 3 Xrotation Yrotation Zrotation
								JOINT LeftShoulder_split
								{
									OFFSET 2.196100 4.412489 0.087492
									CHANNELS 3 Xrotation Yrotation Zrotation
									JOINT LeftArm
									{
										OFFSET 8.771219 -2.981674 -0.026999
										CHANNELS 3 Xrotation Yrotation Zrotation
										JOINT LeftForeArm
										{
											OFFSET 8.512804 0.000000 -0.000000
											CHANNELS 3 Xrotation Yrotation Zrotation
											JOINT LeftHand
											{
												OFFSET 18.484802 0.000000 -0.000000
												CHANNELS 3 Xrotation Yrotation Zrotation
												End Site
												{
													OFFSET 0 0 0
												}
											}
										}
									}
								}
							}
						}
						JOINT RightShoulder_virtual
						{
							OFFSET 0.000000 0.000000 0.000000
							CHANNELS 3 Xrotation Yrotation Zrotation
							JOINT RightShoulder
							{
								OFFSET -2.196100 4.412496 0.070690
								CHANNELS 3 Xrotation Yrotation Zrotation
								JOINT RightShoulder_split
								{
									OFFSET -2.196100 4.412496 0.070690
									CHANNELS 3 Xrotation Yrotation Zrotation
									JOINT RightArm
									{
										OFFSET -8.771282 -2.981682 -0.094208
										CHANNELS 3 Xrotation Yrotation Zrotation
										JOINT RightForeArm
										{
											OFFSET -8.494598 0.000000 0.000000
											CHANNELS 3 Xrotation Yrotation Zrotation
											JOINT RightHand
											{
												OFFSET -18.483803 0.000000 0.000001
												CHANNELS 3 Xrotation Yrotation Zrotation
												End Site
												{
													OFFSET 0 0 0
												}
											}
										}
									}
								}
							}
						}
					}
				}
			}
		}
	}
}
MOTION
Frames: 5
Frame Time: 0.03333333
2.271383 20.455151 51.599709 0.000000 0.000000 0.000000 18.043917 -57.602195 29.523148 -67.965751 -47.220410 41.395987 92.713855 -5.306018 -45.814372 -3.058433 -1.012458 -28.827490 4.364540 1.149812 -5.061193 0.000000 0.000000 0.000000 15.711090 -56.566711 29.831988 -74.355079 31.037551 -30.814894 107.114209 12.925833 0.855859 -39.473121 -5.909269 16.284318 6.873324 -1.849997 -0.005349 0.000000 0.000000 0.000000 14.226775 -58.886332 26.111531 36.038353 -2.800401 -11.414153 0.940968 4.849406 -1.338511 1.228215 -1.556388 1.529220 0.000000 0.000000 0.000000 1.166987 5.592681 -0.606396 -13.807358 18.079415 -1.606585 4.223060 22.011797 -19.169600 0.000000 0.000000 0.000000 4.507053 5.383686 -0.867384 3.586337 -18.597647 -3.630923 -4.692308 0.568566 -3.059568 -20.592848 23.195246 -24.812788 -50.887829 -79.074630 -41.040069 0.000000 0.000000 0.000000 4.371088 5.844226 -0.835586 -1.821978 30.213984 19.646141 3.130589 6.275122 -0.459439 -50.776419 -6.292422 19.779193 -34.623448 58.405870 29.805200 0.000000 0.000000 0.000000 
2.486859 20.614529 51.858582 0.000000 0.000000 0.000000 19.675079 -55.339275 29.122530 -70.878471 -48.498100 40.717708 95.636459 -5.427985 -48.767817 -3.550939 -0.365721 -28.596404 3.782885 1.128478 -2.765095 0.000000 0.000000 0.000000 17.306485 -55.697160 29.362413 -75.326482 30.479777 -32.211582 106.129774 13.272864 2.211179 -41.594961 -8.465336 17.047671 9.860959 -1.305124 -0.539098 0.000000 0.000000 0.000000 15.358384 -56.968692 25.328423 37.953801 -3.395572 -12.112155 0.709299 4.747254 -1.007263 1.212877 -1.618336 1.366392 0.000000 0.000000 0.000000 1.014765 5.340142 -0.068896 -14.735341 19.067349 -1.609155 1.763978 21.813206 -17.367124 0.000000 0.000000 0.000000 4.555215 5.205326 -0.459603 4.746055 -18.386560 -2.659922 -5.489852 0.049888 -3.497041 -20.681376 18.981514 -25.923044 -30.062053 -75.440109 -21.461795 0.000000 0.000000 0.000000 4.152541 5.664676 -0.537405 -1.161138 29.706654 20.671339 4.716297 6.324865 0.540700 -53.616456 -3.965564 22.668112 -35.097023 59.621616 30.473654 0.000000 0.000000 0.000000 
2.630380 21.010448 51.863461 0.000000 0.000000 0.000000 21.227403 -53.957538 28.841980 -70.282804 -48.146157 40.777291 96.398319 -4.526220 -50.107067 -4.738141 -0.204768 -27.802259 -0.260318 0.988764 -0.232401 0.000000 0.000000 0.000000 19.253875 -55.470230 29.136853 -75.310055 29.126426 -32.999106 103.692373 13.366866 3.057925 -42.581865 -10.504517 18.044405 12.110132 -0.612064 -1.453875 0.000000 0.000000 0.000000 17.223155 -55.378675 25.012264 38.072724 -3.625455 -12.566771 0.570301 4.753468 -0.817324 1.246795 -2.041451 1.100658 0.000000 0.000000 0.000000 1.322785 5.263818 0.194971 -15.827480 19.859991 -1.223667 -0.650752 21.490190 -15.367272 0.000000 0.000000 0.000000 4.660582 5.150891 -0.178495 5.229095 -18.321807 -1.768465 -6.031868 -0.554572 -4.433315 -21.923367 14.892025 -26.356090 -19.849269 -71.246694 -12.232335 0.000000 0.000000 0.000000 4.066607 5.545770 -0.368854 -0.619418 28.366691 21.266750 6.153581 6.253315 1.261607 -57.103004 -3.862121 24.445068 -39.738751 63.692907 35.590029 0.000000 0.000000 0.000000 
2.747966 21.583950 51.781830 0.000000 0.000000 0.000000 22.320368 -53.817557 28.733465 -67.948655 -46.213958 41.012274 95.800547 -3.264436 -50.011055 -6.179444 -0.674236 -26.083553 -4.991362 0.702708 1.693301 0.000000 0.000000 0.000000 21.100852 -55.771548 29.106674 -74.272474 27.547355 -33.023760 99.714533 13.346798 2.957318 -41.513979 -11.716364 19.971909 12.397723 -0.006505 -2.321539 0.000000 0.000000 0.000000 19.424877 -54.552803 25.187253 36.587192 -3.536988 -12.937370 0.611988 4.760244 -0.686662 1.237040 -2.629013 0.875083 0.000000 0.000000 0.000000 2.001436 5.256823 0.276417 -17.084128 20.475480 -0.664826 -2.852115 21.184675 -13.370518 0.000000 0.000000 0.000000 4.801917 5.153742 0.060041 4.984020 -18.587224 -1.060771 -6.220172 -0.872001 -5.399589 -23.714914 11.226403 -26.686715 -14.789328 -68.070198 -8.005442 0.000000 0.000000 0.000000 4.094255 5.417370 -0.223875 -0.250506 26.493172 21.478790 7.150605 6.128611 1.892742 -59.394041 -5.812546 25.488403 -50.008395 69.024041 46.487483 0.000000 0.000000 0.000000 
2.859655 22.223305 51.910965 0.000000 0.000000 0.000000 22.411362 -54.485430 28.349832 -65.028025 -43.163391 40.819328 94.097447 -1.879517 -48.651728 -8.003184 -1.129440 -23.018477 -7.232591 0.649796 2.114916 0.000000 0.000000 0.000000 22.367377 -56.325858 28.969954 -71.905561 25.801864 -32.587748 94.348360 13.088007 2.019608 -38.720629 -11.960840 22.250642 10.701493 0.351293 -2.717865 0.000000 0.000000 0.000000 20.900889 -54.400811 25.281660 33.972029 -3.254975 -13.256908 0.880765 4.677034 -0.587299 1.235653 -2.534329 0.904702 0.000000 0.000000 0.000000 2.874610 5.190713 0.231312 -18.467833 20.898885 -0.059238 -4.662479 21.086225 -11.578497 0.000000 0.000000 0.000000 5.019443 5.085295 0.280605 4.086824 -19.164700 -0.727869 -5.631807 -1.094341 -5.735385 -25.389398 8.342900 -27.286102 -11.867517 -66.456095 -5.832956 0.000000 0.000000 0.000000 4.251430 5.231622 -0.060389 -0.137734 24.501419 21.142289 7.477042 5.884941 2.659434 -59.861076 -9.105909 26.240757 -67.454279 73.452524 64.579930 0.000000 0.000000 0.000000 
